<?xml version="1.0" standalone="no"?>
<!DOCTYPE svg PUBLIC "-//W3C//DTD SVG 20010904//EN"
 "http://www.w3.org/TR/2001/REC-SVG-20010904/DTD/svg10.dtd">
<svg version="1.0" xmlns="http://www.w3.org/2000/svg"
 width="900.000000pt" height="380.000000pt" viewBox="0 0 900.000000 380.000000"
 preserveAspectRatio="xMidYMid meet">
<metadata>
Created by potrace 1.16, written by Peter Selinger 2001-2019
</metadata>
<g transform="translate(0.000000,380.000000) scale(0.100000,-0.100000)"
fill="#000000" stroke="none">
<path d="M2418 3619 c-17 -9 -18 -80 -18 -1262 0 -1200 1 -1254 19 -1287 10
-19 36 -45 57 -57 33 -19 54 -23 141 -23 94 0 103 2 117 22 14 20 16 160 16
1298 0 1138 -2 1278 -16 1298 -14 21 -22 22 -157 22 -78 0 -150 -5 -159 -11z"/>
<path d="M1165 2909 c-189 -26 -315 -92 -386 -202 -89 -137 -92 -347 -7 -496
61 -108 140 -171 456 -364 161 -98 314 -196 341 -217 66 -52 95 -113 89 -188
-9 -113 -68 -178 -187 -203 -82 -17 -550 0 -709 27 l-33 5 3 -113 3 -113 51
-17 c118 -39 541 -75 688 -59 321 36 504 182 539 427 23 161 -23 309 -130 418
-71 72 -129 111 -457 311 -309 187 -311 189 -342 241 -30 51 -31 113 -3 171
44 90 112 114 332 113 142 0 459 -22 530 -36 l27 -6 0 110 c0 81 -4 113 -14
121 -58 48 -601 96 -791 70z"/>
<path d="M4565 2911 c-103 -25 -165 -104 -165 -208 1 -207 271 -287 385 -114
81 122 12 287 -135 320 -25 6 -47 10 -50 10 -3 -1 -18 -4 -35 -8z"/>
<path d="M5113 2910 c-51 -12 -96 -43 -127 -88 -40 -57 -48 -149 -18 -209 81
-158 304 -158 381 0 29 59 27 125 -4 186 -28 56 -67 87 -132 107 -50 15 -53
15 -100 4z"/>
<path d="M6772 2910 c-330 -35 -514 -173 -592 -444 -35 -124 -42 -227 -38
-551 5 -298 6 -314 31 -402 79 -275 246 -442 516 -515 119 -32 351 -36 508 -9
66 12 127 21 134 21 14 0 6 -190 -12 -254 -27 -96 -101 -164 -208 -188 -73
-17 -335 -14 -591 6 -107 9 -210 16 -227 16 l-33 0 0 -94 c0 -69 4 -97 14
-106 20 -16 96 -35 241 -62 107 -20 152 -22 415 -22 274 0 301 1 375 22 165
46 255 113 313 232 67 140 65 109 69 1210 2 547 2 1004 -1 1016 -8 29 -34 38
-182 68 -253 50 -561 74 -732 56z m388 -290 c47 -6 106 -15 133 -21 l47 -11
-2 -637 -3 -636 -60 -12 c-114 -23 -336 -35 -420 -24 -197 28 -307 135 -349
343 -12 59 -16 141 -16 348 0 357 16 432 113 537 50 54 113 92 181 109 63 15
263 17 376 4z"/>
<path d="M3252 2888 c-17 -17 -17 -1869 0 -1886 18 -18 312 -17 327 2 8 10 11
249 9 904 -3 886 -3 891 -24 919 -45 61 -77 73 -193 73 -70 0 -111 -4 -119
-12z"/>
<path d="M8062 2879 c-103 -52 -131 -189 -56 -279 37 -43 80 -63 139 -63 58 0
102 20 138 62 128 153 -42 368 -221 280z m141 -23 c151 -63 107 -286 -56 -286
-79 0 -135 46 -151 126 -8 34 12 94 42 128 38 43 108 56 165 32z"/>
<path d="M8065 2808 c-3 -13 -4 -61 -3 -108 3 -80 4 -85 26 -88 20 -3 22 1 22
37 0 54 22 54 52 1 16 -28 30 -40 46 -40 27 0 27 1 2 50 l-20 40 21 21 c16 16
20 28 15 53 -9 43 -31 56 -98 56 -51 0 -58 -2 -63 -22z"/>
<path d="M4187 2486 c-88 -33 -137 -97 -145 -191 -5 -72 36 -149 101 -189 83
-51 197 -36 264 36 74 78 69 224 -9 294 -58 53 -146 74 -211 50z"/>
<path d="M5450 2485 c-97 -31 -158 -136 -139 -240 5 -26 14 -55 21 -64 84
-112 198 -139 301 -70 92 61 121 185 64 281 -49 85 -152 124 -247 93z"/>
<path d="M4187 1936 c-94 -35 -142 -102 -142 -201 0 -78 27 -130 87 -171 82
-56 179 -52 253 9 90 73 100 221 22 305 -53 57 -152 83 -220 58z"/>
<path d="M5451 1935 c-146 -46 -193 -236 -85 -346 133 -136 360 -43 359 146
-1 99 -56 172 -149 200 -59 18 -68 18 -125 0z"/>
<path d="M5451 1385 c-144 -45 -191 -224 -90 -339 128 -145 364 -55 363 139 0
97 -56 173 -148 200 -59 18 -68 18 -125 0z"/>
<path d="M4165 1376 c-68 -30 -112 -94 -122 -176 -5 -41 -1 -59 21 -103 37
-77 88 -110 175 -115 83 -4 142 23 186 86 27 39 30 52 30 117 0 65 -3 78 -30
116 -41 58 -102 89 -174 89 -31 -1 -69 -7 -86 -14z"/>
</g>
</svg>
